<?xml version="1.0" encoding="utf-8" standalone="no"?>
<!DOCTYPE svg PUBLIC "-//W3C//DTD SVG 1.1//EN"
  "http://www.w3.org/Graphics/SVG/1.1/DTD/svg11.dtd">
<svg xmlns:xlink="http://www.w3.org/1999/xlink" width="726.787812pt" height="338.4pt" viewBox="0 0 726.787812 338.4" xmlns="http://www.w3.org/2000/svg" version="1.1">
 <metadata>
  <rdf:RDF xmlns:dc="http://purl.org/dc/elements/1.1/" xmlns:cc="http://creativecommons.org/ns#" xmlns:rdf="http://www.w3.org/1999/02/22-rdf-syntax-ns#">
   <cc:Work>
    <dc:type rdf:resource="http://purl.org/dc/dcmitype/StillImage"/>
    <dc:date>2026-05-05T14:00:46.918568</dc:date>
    <dc:format>image/svg+xml</dc:format>
    <dc:creator>
     <cc:Agent>
      <dc:title>Matplotlib v3.10.9, https://matplotlib.org/</dc:title>
     </cc:Agent>
    </dc:creator>
   </cc:Work>
  </rdf:RDF>
 </metadata>
 <defs>
  <style type="text/css">*{stroke-linejoin: round; stroke-linecap: butt}</style>
 </defs>
 <g id="figure_1">
  <g id="patch_1">
   <path d="M 0 338.4
L 726.787812 338.4
L 726.787812 0
L 0 0
z
" style="fill: #ffffff"/>
  </g>
  <g id="axes_1">
   <g id="patch_2">
    <path d="M 190.696841 91.315385
Q 206.891685 91.315385 221.074068 91.315385
" clip-path="url(#pb725596238)" style="fill: none; stroke: #5e728f; stroke-width: 1.8; stroke-linecap: round"/>
    <path d="M 214.674068 88.115385
L 221.074068 91.315385
L 214.674068 94.515385
z
" clip-path="url(#pb725596238)" style="fill: #5e728f; stroke: #5e728f; stroke-width: 1.8; stroke-linecap: round"/>
   </g>
   <g id="patch_3">
    <path d="M 318.082841 91.315385
Q 334.277685 91.315385 348.460068 91.315385
" clip-path="url(#pb725596238)" style="fill: none; stroke: #375a7f; stroke-width: 1.8; stroke-linecap: round"/>
    <path d="M 342.060068 88.115385
L 348.460068 91.315385
L 342.060068 94.515385
z
" clip-path="url(#pb725596238)" style="fill: #375a7f; stroke: #375a7f; stroke-width: 1.8; stroke-linecap: round"/>
   </g>
   <g id="patch_4">
    <path d="M 473.37333 91.315385
Q 490.782223 91.315385 506.178656 91.315385
" clip-path="url(#pb725596238)" style="fill: none; stroke: #375a7f; stroke-width: 1.8; stroke-linecap: round"/>
    <path d="M 499.778656 88.115385
L 506.178656 91.315385
L 499.778656 94.515385
z
" clip-path="url(#pb725596238)" style="fill: #375a7f; stroke: #375a7f; stroke-width: 1.8; stroke-linecap: round"/>
   </g>
   <g id="patch_5">
    <path d="M 560.538906 124.467876
Q 560.538906 158.294268 560.538906 190.108199
" clip-path="url(#pb725596238)" style="fill: none; stroke: #375a7f; stroke-width: 1.8; stroke-linecap: round"/>
    <path d="M 563.738906 183.708199
L 560.538906 190.108199
L 557.338906 183.708199
z
" clip-path="url(#pb725596238)" style="fill: #375a7f; stroke: #375a7f; stroke-width: 1.8; stroke-linecap: round"/>
   </g>
   <g id="patch_6">
    <path d="M 471.552641 228.392308
Q 487.747485 228.392308 501.929868 228.392308
" clip-path="url(#pb725596238)" style="fill: none; stroke: #5b1136; stroke-width: 1.8; stroke-linecap: round"/>
    <path d="M 495.529868 225.192308
L 501.929868 228.392308
L 495.529868 231.592308
z
" clip-path="url(#pb725596238)" style="fill: #5b1136; stroke: #5b1136; stroke-width: 1.8; stroke-linecap: round"/>
   </g>
   <g id="patch_7">
    <path d="M 497.879151 228.392308
Q 411.921155 228.392308 327.975619 228.392308
" clip-path="url(#pb725596238)" style="fill: none; stroke: #c1702b; stroke-width: 1.8; stroke-linecap: round"/>
    <path d="M 334.375619 231.592308
L 327.975619 228.392308
L 334.375619 225.192308
z
" clip-path="url(#pb725596238)" style="fill: #c1702b; stroke: #c1702b; stroke-width: 1.8; stroke-linecap: round"/>
   </g>
   <g id="patch_8">
    <path d="M 263.304906 195.235062
Q 263.304906 159.853654 263.304906 126.484706
" clip-path="url(#pb725596238)" style="fill: none; stroke: #c1702b; stroke-width: 1.8; stroke-linecap: round"/>
    <path d="M 260.104906 132.884706
L 263.304906 126.484706
L 266.504906 132.884706
z
" clip-path="url(#pb725596238)" style="fill: #c1702b; stroke: #c1702b; stroke-width: 1.8; stroke-linecap: round"/>
   </g>
   <g id="text_1">
    <g id="patch_9">
     <path d="M 101.795875 105.953353
L 157.909937 105.953353
Q 159.709937 105.953353 159.709937 104.153353
L 159.709937 78.477416
Q 159.709937 76.677416 157.909937 76.677416
L 101.795875 76.677416
Q 99.995875 76.677416 99.995875 78.477416
L 99.995875 104.153353
Q 99.995875 105.953353 101.795875 105.953353
z
" style="fill: #f3f6f8; stroke: #5e728f; stroke-width: 1.5; stroke-linejoin: miter"/>
    </g>
    <!-- Network -->
    <g style="fill: #183456" transform="translate(108.976344 88.475853) scale(0.1 -0.1)">
     <defs>
      <path id="DejaVuSans-4e" d="M 628 4666
L 1478 4666
L 3547 763
L 3547 4666
L 4159 4666
L 4159 0
L 3309 0
L 1241 3903
L 1241 0
L 628 0
L 628 4666
z
" transform="scale(0.015625)"/>
      <path id="DejaVuSans-65" d="M 3597 1894
L 3597 1613
L 953 1613
Q 991 1019 1311 708
Q 1631 397 2203 397
Q 2534 397 2845 478
Q 3156 559 3463 722
L 3463 178
Q 3153 47 2828 -22
Q 2503 -91 2169 -91
Q 1331 -91 842 396
Q 353 884 353 1716
Q 353 2575 817 3079
Q 1281 3584 2069 3584
Q 2775 3584 3186 3129
Q 3597 2675 3597 1894
z
M 3022 2063
Q 3016 2534 2758 2815
Q 2500 3097 2075 3097
Q 1594 3097 1305 2825
Q 1016 2553 972 2059
L 3022 2063
z
" transform="scale(0.015625)"/>
      <path id="DejaVuSans-74" d="M 1172 4494
L 1172 3500
L 2356 3500
L 2356 3053
L 1172 3053
L 1172 1153
Q 1172 725 1289 603
Q 1406 481 1766 481
L 2356 481
L 2356 0
L 1766 0
Q 1100 0 847 248
Q 594 497 594 1153
L 594 3053
L 172 3053
L 172 3500
L 594 3500
L 594 4494
L 1172 4494
z
" transform="scale(0.015625)"/>
      <path id="DejaVuSans-77" d="M 269 3500
L 844 3500
L 1563 769
L 2278 3500
L 2956 3500
L 3675 769
L 4391 3500
L 4966 3500
L 4050 0
L 3372 0
L 2619 2869
L 1863 0
L 1184 0
L 269 3500
z
" transform="scale(0.015625)"/>
      <path id="DejaVuSans-6f" d="M 1959 3097
Q 1497 3097 1228 2736
Q 959 2375 959 1747
Q 959 1119 1226 758
Q 1494 397 1959 397
Q 2419 397 2687 759
Q 2956 1122 2956 1747
Q 2956 2369 2687 2733
Q 2419 3097 1959 3097
z
M 1959 3584
Q 2709 3584 3137 3096
Q 3566 2609 3566 1747
Q 3566 888 3137 398
Q 2709 -91 1959 -91
Q 1206 -91 779 398
Q 353 888 353 1747
Q 353 2609 779 3096
Q 1206 3584 1959 3584
z
" transform="scale(0.015625)"/>
      <path id="DejaVuSans-72" d="M 2631 2963
Q 2534 3019 2420 3045
Q 2306 3072 2169 3072
Q 1681 3072 1420 2755
Q 1159 2438 1159 1844
L 1159 0
L 581 0
L 581 3500
L 1159 3500
L 1159 2956
Q 1341 3275 1631 3429
Q 1922 3584 2338 3584
Q 2397 3584 2469 3576
Q 2541 3569 2628 3553
L 2631 2963
z
" transform="scale(0.015625)"/>
      <path id="DejaVuSans-6b" d="M 581 4863
L 1159 4863
L 1159 1991
L 2875 3500
L 3609 3500
L 1753 1863
L 3688 0
L 2938 0
L 1159 1709
L 1159 0
L 581 0
L 581 4863
z
" transform="scale(0.015625)"/>
     </defs>
     <use xlink:href="#DejaVuSans-4e"/>
     <use xlink:href="#DejaVuSans-65" transform="translate(74.804688 0)"/>
     <use xlink:href="#DejaVuSans-74" transform="translate(136.328125 0)"/>
     <use xlink:href="#DejaVuSans-77" transform="translate(175.537109 0)"/>
     <use xlink:href="#DejaVuSans-6f" transform="translate(257.324219 0)"/>
     <use xlink:href="#DejaVuSans-72" transform="translate(318.505859 0)"/>
     <use xlink:href="#DejaVuSans-6b" transform="translate(359.619141 0)"/>
    </g>
    <!-- ON or OFF -->
    <g style="fill: #183456" transform="translate(104.195875 99.673666) scale(0.1 -0.1)">
     <defs>
      <path id="DejaVuSans-4f" d="M 2522 4238
Q 1834 4238 1429 3725
Q 1025 3213 1025 2328
Q 1025 1447 1429 934
Q 1834 422 2522 422
Q 3209 422 3611 934
Q 4013 1447 4013 2328
Q 4013 3213 3611 3725
Q 3209 4238 2522 4238
z
M 2522 4750
Q 3503 4750 4090 4092
Q 4678 3434 4678 2328
Q 4678 1225 4090 567
Q 3503 -91 2522 -91
Q 1538 -91 948 565
Q 359 1222 359 2328
Q 359 3434 948 4092
Q 1538 4750 2522 4750
z
" transform="scale(0.015625)"/>
      <path id="DejaVuSans-20" transform="scale(0.015625)"/>
      <path id="DejaVuSans-46" d="M 628 4666
L 3309 4666
L 3309 4134
L 1259 4134
L 1259 2759
L 3109 2759
L 3109 2228
L 1259 2228
L 1259 0
L 628 0
L 628 4666
z
" transform="scale(0.015625)"/>
     </defs>
     <use xlink:href="#DejaVuSans-4f"/>
     <use xlink:href="#DejaVuSans-4e" transform="translate(78.710938 0)"/>
     <use xlink:href="#DejaVuSans-20" transform="translate(153.515625 0)"/>
     <use xlink:href="#DejaVuSans-6f" transform="translate(185.302734 0)"/>
     <use xlink:href="#DejaVuSans-72" transform="translate(246.484375 0)"/>
     <use xlink:href="#DejaVuSans-20" transform="translate(287.597656 0)"/>
     <use xlink:href="#DejaVuSans-4f" transform="translate(319.384766 0)"/>
     <use xlink:href="#DejaVuSans-46" transform="translate(398.095703 0)"/>
     <use xlink:href="#DejaVuSans-46" transform="translate(455.615234 0)"/>
    </g>
   </g>
   <g id="text_2">
    <g id="patch_10">
     <path d="M 228.573656 105.96351
L 298.036156 105.96351
Q 299.836156 105.96351 299.836156 104.16351
L 299.836156 78.487572
Q 299.836156 76.687572 298.036156 76.687572
L 228.573656 76.687572
Q 226.773656 76.687572 226.773656 78.487572
L 226.773656 104.16351
Q 226.773656 105.96351 228.573656 105.96351
z
" style="fill: #f3f6f8; stroke: #5e728f; stroke-width: 1.5; stroke-linejoin: miter"/>
    </g>
    <!-- Trial demand -->
    <g style="fill: #183456" transform="translate(230.973656 88.465697) scale(0.1 -0.1)">
     <defs>
      <path id="DejaVuSans-54" d="M -19 4666
L 3928 4666
L 3928 4134
L 2272 4134
L 2272 0
L 1638 0
L 1638 4134
L -19 4134
L -19 4666
z
" transform="scale(0.015625)"/>
      <path id="DejaVuSans-69" d="M 603 3500
L 1178 3500
L 1178 0
L 603 0
L 603 3500
z
M 603 4863
L 1178 4863
L 1178 4134
L 603 4134
L 603 4863
z
" transform="scale(0.015625)"/>
      <path id="DejaVuSans-61" d="M 2194 1759
Q 1497 1759 1228 1600
Q 959 1441 959 1056
Q 959 750 1161 570
Q 1363 391 1709 391
Q 2188 391 2477 730
Q 2766 1069 2766 1631
L 2766 1759
L 2194 1759
z
M 3341 1997
L 3341 0
L 2766 0
L 2766 531
Q 2569 213 2275 61
Q 1981 -91 1556 -91
Q 1019 -91 701 211
Q 384 513 384 1019
Q 384 1609 779 1909
Q 1175 2209 1959 2209
L 2766 2209
L 2766 2266
Q 2766 2663 2505 2880
Q 2244 3097 1772 3097
Q 1472 3097 1187 3025
Q 903 2953 641 2809
L 641 3341
Q 956 3463 1253 3523
Q 1550 3584 1831 3584
Q 2591 3584 2966 3190
Q 3341 2797 3341 1997
z
" transform="scale(0.015625)"/>
      <path id="DejaVuSans-6c" d="M 603 4863
L 1178 4863
L 1178 0
L 603 0
L 603 4863
z
" transform="scale(0.015625)"/>
      <path id="DejaVuSans-64" d="M 2906 2969
L 2906 4863
L 3481 4863
L 3481 0
L 2906 0
L 2906 525
Q 2725 213 2448 61
Q 2172 -91 1784 -91
Q 1150 -91 751 415
Q 353 922 353 1747
Q 353 2572 751 3078
Q 1150 3584 1784 3584
Q 2172 3584 2448 3432
Q 2725 3281 2906 2969
z
M 947 1747
Q 947 1113 1208 752
Q 1469 391 1925 391
Q 2381 391 2643 752
Q 2906 1113 2906 1747
Q 2906 2381 2643 2742
Q 2381 3103 1925 3103
Q 1469 3103 1208 2742
Q 947 2381 947 1747
z
" transform="scale(0.015625)"/>
      <path id="DejaVuSans-6d" d="M 3328 2828
Q 3544 3216 3844 3400
Q 4144 3584 4550 3584
Q 5097 3584 5394 3201
Q 5691 2819 5691 2113
L 5691 0
L 5113 0
L 5113 2094
Q 5113 2597 4934 2840
Q 4756 3084 4391 3084
Q 3944 3084 3684 2787
Q 3425 2491 3425 1978
L 3425 0
L 2847 0
L 2847 2094
Q 2847 2600 2669 2842
Q 2491 3084 2119 3084
Q 1678 3084 1418 2786
Q 1159 2488 1159 1978
L 1159 0
L 581 0
L 581 3500
L 1159 3500
L 1159 2956
Q 1356 3278 1631 3431
Q 1906 3584 2284 3584
Q 2666 3584 2933 3390
Q 3200 3197 3328 2828
z
" transform="scale(0.015625)"/>
      <path id="DejaVuSans-6e" d="M 3513 2113
L 3513 0
L 2938 0
L 2938 2094
Q 2938 2591 2744 2837
Q 2550 3084 2163 3084
Q 1697 3084 1428 2787
Q 1159 2491 1159 1978
L 1159 0
L 581 0
L 581 3500
L 1159 3500
L 1159 2956
Q 1366 3272 1645 3428
Q 1925 3584 2291 3584
Q 2894 3584 3203 3211
Q 3513 2838 3513 2113
z
" transform="scale(0.015625)"/>
     </defs>
     <use xlink:href="#DejaVuSans-54"/>
     <use xlink:href="#DejaVuSans-72" transform="translate(46.333984 0)"/>
     <use xlink:href="#DejaVuSans-69" transform="translate(87.447266 0)"/>
     <use xlink:href="#DejaVuSans-61" transform="translate(115.230469 0)"/>
     <use xlink:href="#DejaVuSans-6c" transform="translate(176.509766 0)"/>
     <use xlink:href="#DejaVuSans-20" transform="translate(204.292969 0)"/>
     <use xlink:href="#DejaVuSans-64" transform="translate(236.080078 0)"/>
     <use xlink:href="#DejaVuSans-65" transform="translate(299.556641 0)"/>
     <use xlink:href="#DejaVuSans-6d" transform="translate(361.080078 0)"/>
     <use xlink:href="#DejaVuSans-61" transform="translate(458.492188 0)"/>
     <use xlink:href="#DejaVuSans-6e" transform="translate(519.771484 0)"/>
     <use xlink:href="#DejaVuSans-64" transform="translate(583.150391 0)"/>
    </g>
    <!-- $q$ -->
    <g style="fill: #183456" transform="translate(260.104906 99.66351) scale(0.1 -0.1)">
     <defs>
      <path id="DejaVuSans-Oblique-71" d="M 2669 525
Q 2438 222 2123 65
Q 1809 -91 1428 -91
Q 897 -91 595 267
Q 294 625 294 1253
Q 294 1759 480 2231
Q 666 2703 1013 3078
Q 1238 3322 1530 3453
Q 1822 3584 2144 3584
Q 2531 3584 2781 3431
Q 3031 3278 3144 2969
L 3244 3494
L 3822 3494
L 2888 -1319
L 2309 -1319
L 2669 525
z
M 891 1338
Q 891 875 1084 633
Q 1278 391 1644 391
Q 2188 391 2572 911
Q 2956 1431 2956 2175
Q 2956 2625 2757 2864
Q 2559 3103 2188 3103
Q 1916 3103 1684 2976
Q 1453 2850 1281 2606
Q 1100 2350 995 2006
Q 891 1663 891 1338
z
" transform="scale(0.015625)"/>
     </defs>
     <use xlink:href="#DejaVuSans-Oblique-71"/>
    </g>
   </g>
   <g id="text_3">
    <g id="patch_11">
     <path d="M 370.684219 105.953353
L 447.093594 105.953353
Q 448.893594 105.953353 448.893594 104.153353
L 448.893594 78.477416
Q 448.893594 76.677416 447.093594 76.677416
L 370.684219 76.677416
Q 368.884219 76.677416 368.884219 78.477416
L 368.884219 104.153353
Q 368.884219 105.953353 370.684219 105.953353
z
" style="fill: #eef4f8; stroke: #375a7f; stroke-width: 1.5; stroke-linejoin: miter"/>
    </g>
    <!-- Wardrop route -->
    <g style="fill: #183456" transform="translate(373.084219 88.475853) scale(0.1 -0.1)">
     <defs>
      <path id="DejaVuSans-57" d="M 213 4666
L 850 4666
L 1831 722
L 2809 4666
L 3519 4666
L 4500 722
L 5478 4666
L 6119 4666
L 4947 0
L 4153 0
L 3169 4050
L 2175 0
L 1381 0
L 213 4666
z
" transform="scale(0.015625)"/>
      <path id="DejaVuSans-70" d="M 1159 525
L 1159 -1331
L 581 -1331
L 581 3500
L 1159 3500
L 1159 2969
Q 1341 3281 1617 3432
Q 1894 3584 2278 3584
Q 2916 3584 3314 3078
Q 3713 2572 3713 1747
Q 3713 922 3314 415
Q 2916 -91 2278 -91
Q 1894 -91 1617 61
Q 1341 213 1159 525
z
M 3116 1747
Q 3116 2381 2855 2742
Q 2594 3103 2138 3103
Q 1681 3103 1420 2742
Q 1159 2381 1159 1747
Q 1159 1113 1420 752
Q 1681 391 2138 391
Q 2594 391 2855 752
Q 3116 1113 3116 1747
z
" transform="scale(0.015625)"/>
      <path id="DejaVuSans-75" d="M 544 1381
L 544 3500
L 1119 3500
L 1119 1403
Q 1119 906 1312 657
Q 1506 409 1894 409
Q 2359 409 2629 706
Q 2900 1003 2900 1516
L 2900 3500
L 3475 3500
L 3475 0
L 2900 0
L 2900 538
Q 2691 219 2414 64
Q 2138 -91 1772 -91
Q 1169 -91 856 284
Q 544 659 544 1381
z
M 1991 3584
L 1991 3584
z
" transform="scale(0.015625)"/>
     </defs>
     <use xlink:href="#DejaVuSans-57"/>
     <use xlink:href="#DejaVuSans-61" transform="translate(92.501953 0)"/>
     <use xlink:href="#DejaVuSans-72" transform="translate(153.78125 0)"/>
     <use xlink:href="#DejaVuSans-64" transform="translate(193.144531 0)"/>
     <use xlink:href="#DejaVuSans-72" transform="translate(256.621094 0)"/>
     <use xlink:href="#DejaVuSans-6f" transform="translate(295.484375 0)"/>
     <use xlink:href="#DejaVuSans-70" transform="translate(356.666016 0)"/>
     <use xlink:href="#DejaVuSans-20" transform="translate(420.142578 0)"/>
     <use xlink:href="#DejaVuSans-72" transform="translate(451.929688 0)"/>
     <use xlink:href="#DejaVuSans-6f" transform="translate(490.792969 0)"/>
     <use xlink:href="#DejaVuSans-75" transform="translate(551.974609 0)"/>
     <use xlink:href="#DejaVuSans-74" transform="translate(615.353516 0)"/>
     <use xlink:href="#DejaVuSans-65" transform="translate(654.5625 0)"/>
    </g>
    <!-- assignment -->
    <g style="fill: #183456" transform="translate(379.807656 99.673666) scale(0.1 -0.1)">
     <defs>
      <path id="DejaVuSans-73" d="M 2834 3397
L 2834 2853
Q 2591 2978 2328 3040
Q 2066 3103 1784 3103
Q 1356 3103 1142 2972
Q 928 2841 928 2578
Q 928 2378 1081 2264
Q 1234 2150 1697 2047
L 1894 2003
Q 2506 1872 2764 1633
Q 3022 1394 3022 966
Q 3022 478 2636 193
Q 2250 -91 1575 -91
Q 1294 -91 989 -36
Q 684 19 347 128
L 347 722
Q 666 556 975 473
Q 1284 391 1588 391
Q 1994 391 2212 530
Q 2431 669 2431 922
Q 2431 1156 2273 1281
Q 2116 1406 1581 1522
L 1381 1569
Q 847 1681 609 1914
Q 372 2147 372 2553
Q 372 3047 722 3315
Q 1072 3584 1716 3584
Q 2034 3584 2315 3537
Q 2597 3491 2834 3397
z
" transform="scale(0.015625)"/>
      <path id="DejaVuSans-67" d="M 2906 1791
Q 2906 2416 2648 2759
Q 2391 3103 1925 3103
Q 1463 3103 1205 2759
Q 947 2416 947 1791
Q 947 1169 1205 825
Q 1463 481 1925 481
Q 2391 481 2648 825
Q 2906 1169 2906 1791
z
M 3481 434
Q 3481 -459 3084 -895
Q 2688 -1331 1869 -1331
Q 1566 -1331 1297 -1286
Q 1028 -1241 775 -1147
L 775 -588
Q 1028 -725 1275 -790
Q 1522 -856 1778 -856
Q 2344 -856 2625 -561
Q 2906 -266 2906 331
L 2906 616
Q 2728 306 2450 153
Q 2172 0 1784 0
Q 1141 0 747 490
Q 353 981 353 1791
Q 353 2603 747 3093
Q 1141 3584 1784 3584
Q 2172 3584 2450 3431
Q 2728 3278 2906 2969
L 2906 3500
L 3481 3500
L 3481 434
z
" transform="scale(0.015625)"/>
     </defs>
     <use xlink:href="#DejaVuSans-61"/>
     <use xlink:href="#DejaVuSans-73" transform="translate(61.279297 0)"/>
     <use xlink:href="#DejaVuSans-73" transform="translate(113.378906 0)"/>
     <use xlink:href="#DejaVuSans-69" transform="translate(165.478516 0)"/>
     <use xlink:href="#DejaVuSans-67" transform="translate(193.261719 0)"/>
     <use xlink:href="#DejaVuSans-6e" transform="translate(256.738281 0)"/>
     <use xlink:href="#DejaVuSans-6d" transform="translate(320.117188 0)"/>
     <use xlink:href="#DejaVuSans-65" transform="translate(417.529297 0)"/>
     <use xlink:href="#DejaVuSans-6e" transform="translate(479.052734 0)"/>
     <use xlink:href="#DejaVuSans-74" transform="translate(542.431641 0)"/>
    </g>
   </g>
   <g id="text_4">
    <g id="patch_12">
     <path d="M 525.299844 105.964447
L 595.777969 105.964447
Q 597.577969 105.964447 597.577969 104.164447
L 597.577969 78.486635
Q 597.577969 76.686635 595.777969 76.686635
L 525.299844 76.686635
Q 523.499844 76.686635 523.499844 78.486635
L 523.499844 104.164447
Q 523.499844 105.964447 525.299844 105.964447
z
" style="fill: #eef4f8; stroke: #375a7f; stroke-width: 1.5; stroke-linejoin: miter"/>
    </g>
    <!-- Network cost -->
    <g style="fill: #183456" transform="translate(527.699844 88.46476) scale(0.1 -0.1)">
     <defs>
      <path id="DejaVuSans-63" d="M 3122 3366
L 3122 2828
Q 2878 2963 2633 3030
Q 2388 3097 2138 3097
Q 1578 3097 1268 2742
Q 959 2388 959 1747
Q 959 1106 1268 751
Q 1578 397 2138 397
Q 2388 397 2633 464
Q 2878 531 3122 666
L 3122 134
Q 2881 22 2623 -34
Q 2366 -91 2075 -91
Q 1284 -91 818 406
Q 353 903 353 1747
Q 353 2603 823 3093
Q 1294 3584 2113 3584
Q 2378 3584 2631 3529
Q 2884 3475 3122 3366
z
" transform="scale(0.015625)"/>
     </defs>
     <use xlink:href="#DejaVuSans-4e"/>
     <use xlink:href="#DejaVuSans-65" transform="translate(74.804688 0)"/>
     <use xlink:href="#DejaVuSans-74" transform="translate(136.328125 0)"/>
     <use xlink:href="#DejaVuSans-77" transform="translate(175.537109 0)"/>
     <use xlink:href="#DejaVuSans-6f" transform="translate(257.324219 0)"/>
     <use xlink:href="#DejaVuSans-72" transform="translate(318.505859 0)"/>
     <use xlink:href="#DejaVuSans-6b" transform="translate(359.619141 0)"/>
     <use xlink:href="#DejaVuSans-20" transform="translate(417.529297 0)"/>
     <use xlink:href="#DejaVuSans-63" transform="translate(449.316406 0)"/>
     <use xlink:href="#DejaVuSans-6f" transform="translate(504.296875 0)"/>
     <use xlink:href="#DejaVuSans-73" transform="translate(565.478516 0)"/>
     <use xlink:href="#DejaVuSans-74" transform="translate(617.578125 0)"/>
    </g>
    <!-- $c(q)$ -->
    <g style="fill: #183456" transform="translate(550.688906 99.664447) scale(0.1 -0.1)">
     <defs>
      <path id="DejaVuSans-Oblique-63" d="M 3431 3366
L 3316 2797
Q 3109 2947 2876 3022
Q 2644 3097 2394 3097
Q 2119 3097 1870 3000
Q 1622 2903 1453 2725
Q 1184 2453 1037 2087
Q 891 1722 891 1331
Q 891 859 1127 628
Q 1363 397 1844 397
Q 2081 397 2348 469
Q 2616 541 2906 684
L 2797 116
Q 2547 13 2283 -39
Q 2019 -91 1741 -91
Q 1044 -91 669 257
Q 294 606 294 1253
Q 294 1797 489 2255
Q 684 2713 1069 3078
Q 1331 3328 1684 3456
Q 2038 3584 2456 3584
Q 2700 3584 2940 3529
Q 3181 3475 3431 3366
z
" transform="scale(0.015625)"/>
      <path id="DejaVuSans-28" d="M 1984 4856
Q 1566 4138 1362 3434
Q 1159 2731 1159 2009
Q 1159 1288 1364 580
Q 1569 -128 1984 -844
L 1484 -844
Q 1016 -109 783 600
Q 550 1309 550 2009
Q 550 2706 781 3412
Q 1013 4119 1484 4856
L 1984 4856
z
" transform="scale(0.015625)"/>
      <path id="DejaVuSans-29" d="M 513 4856
L 1013 4856
Q 1481 4119 1714 3412
Q 1947 2706 1947 2009
Q 1947 1309 1714 600
Q 1481 -109 1013 -844
L 513 -844
Q 928 -128 1133 580
Q 1338 1288 1338 2009
Q 1338 2731 1133 3434
Q 928 4138 513 4856
z
" transform="scale(0.015625)"/>
     </defs>
     <use xlink:href="#DejaVuSans-Oblique-63" transform="translate(0 0.125)"/>
     <use xlink:href="#DejaVuSans-28" transform="translate(54.980469 0.125)"/>
     <use xlink:href="#DejaVuSans-Oblique-71" transform="translate(93.994141 0.125)"/>
     <use xlink:href="#DejaVuSans-29" transform="translate(157.470703 0.125)"/>
    </g>
   </g>
   <g id="text_5">
    <g id="patch_13">
     <path d="M 365.955312 243.04137
L 451.8225 243.04137
Q 453.6225 243.04137 453.6225 241.24137
L 453.6225 215.563558
Q 453.6225 213.763558 451.8225 213.763558
L 365.955312 213.763558
Q 364.155312 213.763558 364.155312 215.563558
L 364.155312 241.24137
Q 364.155312 243.04137 365.955312 243.04137
z
" style="fill: #f6f0f3; stroke: #5b1136; stroke-width: 1.5; stroke-linejoin: miter"/>
    </g>
    <!-- Inverse demand -->
    <g style="fill: #183456" transform="translate(368.355312 225.541683) scale(0.1 -0.1)">
     <defs>
      <path id="DejaVuSans-49" d="M 628 4666
L 1259 4666
L 1259 0
L 628 0
L 628 4666
z
" transform="scale(0.015625)"/>
      <path id="DejaVuSans-76" d="M 191 3500
L 800 3500
L 1894 563
L 2988 3500
L 3597 3500
L 2284 0
L 1503 0
L 191 3500
z
" transform="scale(0.015625)"/>
     </defs>
     <use xlink:href="#DejaVuSans-49"/>
     <use xlink:href="#DejaVuSans-6e" transform="translate(29.492188 0)"/>
     <use xlink:href="#DejaVuSans-76" transform="translate(92.871094 0)"/>
     <use xlink:href="#DejaVuSans-65" transform="translate(152.050781 0)"/>
     <use xlink:href="#DejaVuSans-72" transform="translate(213.574219 0)"/>
     <use xlink:href="#DejaVuSans-73" transform="translate(254.6875 0)"/>
     <use xlink:href="#DejaVuSans-65" transform="translate(306.787109 0)"/>
     <use xlink:href="#DejaVuSans-20" transform="translate(368.310547 0)"/>
     <use xlink:href="#DejaVuSans-64" transform="translate(400.097656 0)"/>
     <use xlink:href="#DejaVuSans-65" transform="translate(463.574219 0)"/>
     <use xlink:href="#DejaVuSans-6d" transform="translate(525.097656 0)"/>
     <use xlink:href="#DejaVuSans-61" transform="translate(622.509766 0)"/>
     <use xlink:href="#DejaVuSans-6e" transform="translate(683.789062 0)"/>
     <use xlink:href="#DejaVuSans-64" transform="translate(747.167969 0)"/>
    </g>
    <!-- $C(q)=A-Bq$ -->
    <g style="fill: #183456" transform="translate(375.988906 236.74137) scale(0.1 -0.1)">
     <defs>
      <path id="DejaVuSans-Oblique-43" d="M 4447 4306
L 4319 3641
Q 4019 3944 3683 4091
Q 3347 4238 2956 4238
Q 2422 4238 2017 3981
Q 1613 3725 1319 3200
Q 1131 2863 1032 2486
Q 934 2109 934 1728
Q 934 1091 1264 756
Q 1594 422 2222 422
Q 2656 422 3056 561
Q 3456 700 3834 978
L 3688 231
Q 3316 72 2936 -9
Q 2556 -91 2175 -91
Q 1278 -91 773 396
Q 269 884 269 1753
Q 269 2309 461 2846
Q 653 3384 1013 3828
Q 1394 4300 1883 4525
Q 2372 4750 3022 4750
Q 3422 4750 3780 4639
Q 4138 4528 4447 4306
z
" transform="scale(0.015625)"/>
      <path id="DejaVuSans-3d" d="M 678 2906
L 4684 2906
L 4684 2381
L 678 2381
L 678 2906
z
M 678 1631
L 4684 1631
L 4684 1100
L 678 1100
L 678 1631
z
" transform="scale(0.015625)"/>
      <path id="DejaVuSans-Oblique-41" d="M 2356 4666
L 3072 4666
L 3938 0
L 3278 0
L 3084 1197
L 984 1197
L 325 0
L -341 0
L 2356 4666
z
M 2584 4044
L 1275 1722
L 2988 1722
L 2584 4044
z
" transform="scale(0.015625)"/>
      <path id="DejaVuSans-2212" d="M 678 2272
L 4684 2272
L 4684 1741
L 678 1741
L 678 2272
z
" transform="scale(0.015625)"/>
      <path id="DejaVuSans-Oblique-42" d="M 1081 4666
L 2694 4666
Q 3350 4666 3675 4422
Q 4000 4178 4000 3688
Q 4000 3238 3720 2911
Q 3441 2584 2988 2516
Q 3375 2428 3569 2181
Q 3763 1934 3763 1522
Q 3763 819 3242 409
Q 2722 0 1819 0
L 172 0
L 1081 4666
z
M 1234 2228
L 903 519
L 1919 519
Q 2491 519 2800 781
Q 3109 1044 3109 1522
Q 3109 1891 2904 2059
Q 2700 2228 2247 2228
L 1234 2228
z
M 1606 4147
L 1331 2741
L 2272 2741
Q 2775 2741 3058 2959
Q 3341 3178 3341 3566
Q 3341 3869 3150 4008
Q 2959 4147 2541 4147
L 1606 4147
z
" transform="scale(0.015625)"/>
     </defs>
     <use xlink:href="#DejaVuSans-Oblique-43" transform="translate(0 0.125)"/>
     <use xlink:href="#DejaVuSans-28" transform="translate(69.824219 0.125)"/>
     <use xlink:href="#DejaVuSans-Oblique-71" transform="translate(108.837891 0.125)"/>
     <use xlink:href="#DejaVuSans-29" transform="translate(172.314453 0.125)"/>
     <use xlink:href="#DejaVuSans-3d" transform="translate(230.810547 0.125)"/>
     <use xlink:href="#DejaVuSans-Oblique-41" transform="translate(334.082031 0.125)"/>
     <use xlink:href="#DejaVuSans-2212" transform="translate(421.972656 0.125)"/>
     <use xlink:href="#DejaVuSans-Oblique-42" transform="translate(525.244141 0.125)"/>
     <use xlink:href="#DejaVuSans-Oblique-71" transform="translate(593.847656 0.125)"/>
    </g>
   </g>
   <g id="text_6">
    <g id="patch_14">
     <path d="M 524.638906 243.94137
L 596.438906 243.94137
Q 598.238906 243.94137 598.238906 242.14137
L 598.238906 214.663558
Q 598.238906 212.863558 596.438906 212.863558
L 524.638906 212.863558
Q 522.838906 212.863558 522.838906 214.663558
L 522.838906 242.14137
Q 522.838906 243.94137 524.638906 243.94137
z
" style="fill: #eff6f4; stroke: #2f7f95; stroke-width: 1.5; stroke-linejoin: miter"/>
    </g>
    <!-- Equilibrium -->
    <g style="fill: #183456" transform="translate(532.211563 224.641683) scale(0.1 -0.1)">
     <defs>
      <path id="DejaVuSans-45" d="M 628 4666
L 3578 4666
L 3578 4134
L 1259 4134
L 1259 2753
L 3481 2753
L 3481 2222
L 1259 2222
L 1259 531
L 3634 531
L 3634 0
L 628 0
L 628 4666
z
" transform="scale(0.015625)"/>
      <path id="DejaVuSans-71" d="M 947 1747
Q 947 1113 1208 752
Q 1469 391 1925 391
Q 2381 391 2643 752
Q 2906 1113 2906 1747
Q 2906 2381 2643 2742
Q 2381 3103 1925 3103
Q 1469 3103 1208 2742
Q 947 2381 947 1747
z
M 2906 525
Q 2725 213 2448 61
Q 2172 -91 1784 -91
Q 1150 -91 751 415
Q 353 922 353 1747
Q 353 2572 751 3078
Q 1150 3584 1784 3584
Q 2172 3584 2448 3432
Q 2725 3281 2906 2969
L 2906 3500
L 3481 3500
L 3481 -1331
L 2906 -1331
L 2906 525
z
" transform="scale(0.015625)"/>
      <path id="DejaVuSans-62" d="M 3116 1747
Q 3116 2381 2855 2742
Q 2594 3103 2138 3103
Q 1681 3103 1420 2742
Q 1159 2381 1159 1747
Q 1159 1113 1420 752
Q 1681 391 2138 391
Q 2594 391 2855 752
Q 3116 1113 3116 1747
z
M 1159 2969
Q 1341 3281 1617 3432
Q 1894 3584 2278 3584
Q 2916 3584 3314 3078
Q 3713 2572 3713 1747
Q 3713 922 3314 415
Q 2916 -91 2278 -91
Q 1894 -91 1617 61
Q 1341 213 1159 525
L 1159 0
L 581 0
L 581 4863
L 1159 4863
L 1159 2969
z
" transform="scale(0.015625)"/>
     </defs>
     <use xlink:href="#DejaVuSans-45"/>
     <use xlink:href="#DejaVuSans-71" transform="translate(63.183594 0)"/>
     <use xlink:href="#DejaVuSans-75" transform="translate(126.660156 0)"/>
     <use xlink:href="#DejaVuSans-69" transform="translate(190.039062 0)"/>
     <use xlink:href="#DejaVuSans-6c" transform="translate(217.822266 0)"/>
     <use xlink:href="#DejaVuSans-69" transform="translate(245.605469 0)"/>
     <use xlink:href="#DejaVuSans-62" transform="translate(273.388672 0)"/>
     <use xlink:href="#DejaVuSans-72" transform="translate(336.865234 0)"/>
     <use xlink:href="#DejaVuSans-69" transform="translate(377.978516 0)"/>
     <use xlink:href="#DejaVuSans-75" transform="translate(405.761719 0)"/>
     <use xlink:href="#DejaVuSans-6d" transform="translate(469.140625 0)"/>
    </g>
    <!-- $c(q^*)=C(q^*)$ -->
    <g style="fill: #183456" transform="translate(527.038906 237.64137) scale(0.1 -0.1)">
     <defs>
      <path id="DejaVuSans-2a" d="M 3009 3897
L 1888 3291
L 3009 2681
L 2828 2375
L 1778 3009
L 1778 1831
L 1422 1831
L 1422 3009
L 372 2375
L 191 2681
L 1313 3291
L 191 3897
L 372 4206
L 1422 3572
L 1422 4750
L 1778 4750
L 1778 3572
L 2828 4206
L 3009 3897
z
" transform="scale(0.015625)"/>
     </defs>
     <use xlink:href="#DejaVuSans-Oblique-63" transform="translate(0 0.765625)"/>
     <use xlink:href="#DejaVuSans-28" transform="translate(54.980469 0.765625)"/>
     <use xlink:href="#DejaVuSans-Oblique-71" transform="translate(93.994141 0.765625)"/>
     <use xlink:href="#DejaVuSans-2a" transform="translate(175.758294 39.046875) scale(0.7)"/>
     <use xlink:href="#DejaVuSans-29" transform="translate(227.130365 0.765625)"/>
     <use xlink:href="#DejaVuSans-3d" transform="translate(285.626458 0.765625)"/>
     <use xlink:href="#DejaVuSans-Oblique-43" transform="translate(388.897943 0.765625)"/>
     <use xlink:href="#DejaVuSans-28" transform="translate(458.722161 0.765625)"/>
     <use xlink:href="#DejaVuSans-Oblique-71" transform="translate(497.735833 0.765625)"/>
     <use xlink:href="#DejaVuSans-2a" transform="translate(579.499987 39.046875) scale(0.7)"/>
     <use xlink:href="#DejaVuSans-29" transform="translate(630.872057 0.765625)"/>
    </g>
   </g>
   <g id="text_7">
    <g id="patch_15">
     <path d="M 228.383813 243.041214
L 298.226 243.041214
Q 300.026 243.041214 300.026 241.241214
L 300.026 215.523089
Q 300.026 213.723089 298.226 213.723089
L 228.383813 213.723089
Q 226.583813 213.723089 226.583813 215.523089
L 226.583813 241.241214
Q 226.583813 243.041214 228.383813 243.041214
z
" style="fill: #fff7ed; stroke: #c1702b; stroke-width: 1.5; stroke-linejoin: miter"/>
    </g>
    <!-- Adjust $q$ -->
    <g style="fill: #183456" transform="translate(242.804906 225.543401) scale(0.1 -0.1)">
     <defs>
      <path id="DejaVuSans-41" d="M 2188 4044
L 1331 1722
L 3047 1722
L 2188 4044
z
M 1831 4666
L 2547 4666
L 4325 0
L 3669 0
L 3244 1197
L 1141 1197
L 716 0
L 50 0
L 1831 4666
z
" transform="scale(0.015625)"/>
      <path id="DejaVuSans-6a" d="M 603 3500
L 1178 3500
L 1178 -63
Q 1178 -731 923 -1031
Q 669 -1331 103 -1331
L -116 -1331
L -116 -844
L 38 -844
Q 366 -844 484 -692
Q 603 -541 603 -63
L 603 3500
z
M 603 4863
L 1178 4863
L 1178 4134
L 603 4134
L 603 4863
z
" transform="scale(0.015625)"/>
     </defs>
     <use xlink:href="#DejaVuSans-41" transform="translate(0 0.015625)"/>
     <use xlink:href="#DejaVuSans-64" transform="translate(68.408203 0.015625)"/>
     <use xlink:href="#DejaVuSans-6a" transform="translate(131.884766 0.015625)"/>
     <use xlink:href="#DejaVuSans-75" transform="translate(159.667969 0.015625)"/>
     <use xlink:href="#DejaVuSans-73" transform="translate(223.046875 0.015625)"/>
     <use xlink:href="#DejaVuSans-74" transform="translate(275.146484 0.015625)"/>
     <use xlink:href="#DejaVuSans-20" transform="translate(314.355469 0.015625)"/>
     <use xlink:href="#DejaVuSans-Oblique-71" transform="translate(346.142578 0.015625)"/>
    </g>
    <!-- if costs differ -->
    <g style="fill: #183456" transform="translate(230.783813 236.761526) scale(0.1 -0.1)">
     <defs>
      <path id="DejaVuSans-66" d="M 2375 4863
L 2375 4384
L 1825 4384
Q 1516 4384 1395 4259
Q 1275 4134 1275 3809
L 1275 3500
L 2222 3500
L 2222 3053
L 1275 3053
L 1275 0
L 697 0
L 697 3053
L 147 3053
L 147 3500
L 697 3500
L 697 3744
Q 697 4328 969 4595
Q 1241 4863 1831 4863
L 2375 4863
z
" transform="scale(0.015625)"/>
     </defs>
     <use xlink:href="#DejaVuSans-69"/>
     <use xlink:href="#DejaVuSans-66" transform="translate(27.783203 0)"/>
     <use xlink:href="#DejaVuSans-20" transform="translate(62.988281 0)"/>
     <use xlink:href="#DejaVuSans-63" transform="translate(94.775391 0)"/>
     <use xlink:href="#DejaVuSans-6f" transform="translate(149.755859 0)"/>
     <use xlink:href="#DejaVuSans-73" transform="translate(210.9375 0)"/>
     <use xlink:href="#DejaVuSans-74" transform="translate(263.037109 0)"/>
     <use xlink:href="#DejaVuSans-73" transform="translate(302.246094 0)"/>
     <use xlink:href="#DejaVuSans-20" transform="translate(354.345703 0)"/>
     <use xlink:href="#DejaVuSans-64" transform="translate(386.132812 0)"/>
     <use xlink:href="#DejaVuSans-69" transform="translate(449.609375 0)"/>
     <use xlink:href="#DejaVuSans-66" transform="translate(477.392578 0)"/>
     <use xlink:href="#DejaVuSans-66" transform="translate(512.597656 0)"/>
     <use xlink:href="#DejaVuSans-65" transform="translate(547.802734 0)"/>
     <use xlink:href="#DejaVuSans-72" transform="translate(609.326172 0)"/>
    </g>
   </g>
   <g id="text_8">
    <!-- iterate -->
    <g style="fill: #c1702b" transform="translate(277.222919 162.282096) scale(0.088 -0.088)">
     <use xlink:href="#DejaVuSans-69"/>
     <use xlink:href="#DejaVuSans-74" transform="translate(27.783203 0)"/>
     <use xlink:href="#DejaVuSans-65" transform="translate(66.992188 0)"/>
     <use xlink:href="#DejaVuSans-72" transform="translate(128.515625 0)"/>
     <use xlink:href="#DejaVuSans-61" transform="translate(169.628906 0)"/>
     <use xlink:href="#DejaVuSans-74" transform="translate(230.908203 0)"/>
     <use xlink:href="#DejaVuSans-65" transform="translate(270.117188 0)"/>
    </g>
   </g>
   <g id="text_9">
    <!-- Elastic-demand equilibrium is a feedback fixed point, not a sequential afterthought -->
    <g style="fill: #183456" transform="translate(32.852812 32.81613) scale(0.14 -0.14)">
     <defs>
      <path id="DejaVuSans-Bold-45" d="M 588 4666
L 3834 4666
L 3834 3756
L 1791 3756
L 1791 2888
L 3713 2888
L 3713 1978
L 1791 1978
L 1791 909
L 3903 909
L 3903 0
L 588 0
L 588 4666
z
" transform="scale(0.015625)"/>
      <path id="DejaVuSans-Bold-6c" d="M 538 4863
L 1656 4863
L 1656 0
L 538 0
L 538 4863
z
" transform="scale(0.015625)"/>
      <path id="DejaVuSans-Bold-61" d="M 2106 1575
Q 1756 1575 1579 1456
Q 1403 1338 1403 1106
Q 1403 894 1545 773
Q 1688 653 1941 653
Q 2256 653 2472 879
Q 2688 1106 2688 1447
L 2688 1575
L 2106 1575
z
M 3816 1997
L 3816 0
L 2688 0
L 2688 519
Q 2463 200 2181 54
Q 1900 -91 1497 -91
Q 953 -91 614 226
Q 275 544 275 1050
Q 275 1666 698 1953
Q 1122 2241 2028 2241
L 2688 2241
L 2688 2328
Q 2688 2594 2478 2717
Q 2269 2841 1825 2841
Q 1466 2841 1156 2769
Q 847 2697 581 2553
L 581 3406
Q 941 3494 1303 3539
Q 1666 3584 2028 3584
Q 2975 3584 3395 3211
Q 3816 2838 3816 1997
z
" transform="scale(0.015625)"/>
      <path id="DejaVuSans-Bold-73" d="M 3272 3391
L 3272 2541
Q 2913 2691 2578 2766
Q 2244 2841 1947 2841
Q 1628 2841 1473 2761
Q 1319 2681 1319 2516
Q 1319 2381 1436 2309
Q 1553 2238 1856 2203
L 2053 2175
Q 2913 2066 3209 1816
Q 3506 1566 3506 1031
Q 3506 472 3093 190
Q 2681 -91 1863 -91
Q 1516 -91 1145 -36
Q 775 19 384 128
L 384 978
Q 719 816 1070 734
Q 1422 653 1784 653
Q 2113 653 2278 743
Q 2444 834 2444 1013
Q 2444 1163 2330 1236
Q 2216 1309 1875 1350
L 1678 1375
Q 931 1469 631 1722
Q 331 1975 331 2491
Q 331 3047 712 3315
Q 1094 3584 1881 3584
Q 2191 3584 2531 3537
Q 2872 3491 3272 3391
z
" transform="scale(0.015625)"/>
      <path id="DejaVuSans-Bold-74" d="M 1759 4494
L 1759 3500
L 2913 3500
L 2913 2700
L 1759 2700
L 1759 1216
Q 1759 972 1856 886
Q 1953 800 2241 800
L 2816 800
L 2816 0
L 1856 0
Q 1194 0 917 276
Q 641 553 641 1216
L 641 2700
L 84 2700
L 84 3500
L 641 3500
L 641 4494
L 1759 4494
z
" transform="scale(0.015625)"/>
      <path id="DejaVuSans-Bold-69" d="M 538 3500
L 1656 3500
L 1656 0
L 538 0
L 538 3500
z
M 538 4863
L 1656 4863
L 1656 3950
L 538 3950
L 538 4863
z
" transform="scale(0.015625)"/>
      <path id="DejaVuSans-Bold-63" d="M 3366 3391
L 3366 2478
Q 3138 2634 2908 2709
Q 2678 2784 2431 2784
Q 1963 2784 1702 2511
Q 1441 2238 1441 1747
Q 1441 1256 1702 982
Q 1963 709 2431 709
Q 2694 709 2930 787
Q 3166 866 3366 1019
L 3366 103
Q 3103 6 2833 -42
Q 2563 -91 2291 -91
Q 1344 -91 809 395
Q 275 881 275 1747
Q 275 2613 809 3098
Q 1344 3584 2291 3584
Q 2566 3584 2833 3536
Q 3100 3488 3366 3391
z
" transform="scale(0.015625)"/>
      <path id="DejaVuSans-Bold-2d" d="M 347 2297
L 2309 2297
L 2309 1388
L 347 1388
L 347 2297
z
" transform="scale(0.015625)"/>
      <path id="DejaVuSans-Bold-64" d="M 2919 2988
L 2919 4863
L 4044 4863
L 4044 0
L 2919 0
L 2919 506
Q 2688 197 2409 53
Q 2131 -91 1766 -91
Q 1119 -91 703 423
Q 288 938 288 1747
Q 288 2556 703 3070
Q 1119 3584 1766 3584
Q 2128 3584 2408 3439
Q 2688 3294 2919 2988
z
M 2181 722
Q 2541 722 2730 984
Q 2919 1247 2919 1747
Q 2919 2247 2730 2509
Q 2541 2772 2181 2772
Q 1825 2772 1636 2509
Q 1447 2247 1447 1747
Q 1447 1247 1636 984
Q 1825 722 2181 722
z
" transform="scale(0.015625)"/>
      <path id="DejaVuSans-Bold-65" d="M 4031 1759
L 4031 1441
L 1416 1441
Q 1456 1047 1700 850
Q 1944 653 2381 653
Q 2734 653 3104 758
Q 3475 863 3866 1075
L 3866 213
Q 3469 63 3072 -14
Q 2675 -91 2278 -91
Q 1328 -91 801 392
Q 275 875 275 1747
Q 275 2603 792 3093
Q 1309 3584 2216 3584
Q 3041 3584 3536 3087
Q 4031 2591 4031 1759
z
M 2881 2131
Q 2881 2450 2695 2645
Q 2509 2841 2209 2841
Q 1884 2841 1681 2658
Q 1478 2475 1428 2131
L 2881 2131
z
" transform="scale(0.015625)"/>
      <path id="DejaVuSans-Bold-6d" d="M 3781 2919
Q 3994 3244 4286 3414
Q 4578 3584 4928 3584
Q 5531 3584 5847 3212
Q 6163 2841 6163 2131
L 6163 0
L 5038 0
L 5038 1825
Q 5041 1866 5042 1909
Q 5044 1953 5044 2034
Q 5044 2406 4934 2573
Q 4825 2741 4581 2741
Q 4263 2741 4089 2478
Q 3916 2216 3909 1719
L 3909 0
L 2784 0
L 2784 1825
Q 2784 2406 2684 2573
Q 2584 2741 2328 2741
Q 2006 2741 1831 2477
Q 1656 2213 1656 1722
L 1656 0
L 531 0
L 531 3500
L 1656 3500
L 1656 2988
Q 1863 3284 2130 3434
Q 2397 3584 2719 3584
Q 3081 3584 3359 3409
Q 3638 3234 3781 2919
z
" transform="scale(0.015625)"/>
      <path id="DejaVuSans-Bold-6e" d="M 4056 2131
L 4056 0
L 2931 0
L 2931 347
L 2931 1631
Q 2931 2084 2911 2256
Q 2891 2428 2841 2509
Q 2775 2619 2662 2680
Q 2550 2741 2406 2741
Q 2056 2741 1856 2470
Q 1656 2200 1656 1722
L 1656 0
L 538 0
L 538 3500
L 1656 3500
L 1656 2988
Q 1909 3294 2193 3439
Q 2478 3584 2822 3584
Q 3428 3584 3742 3212
Q 4056 2841 4056 2131
z
" transform="scale(0.015625)"/>
      <path id="DejaVuSans-Bold-20" transform="scale(0.015625)"/>
      <path id="DejaVuSans-Bold-71" d="M 2181 2772
Q 1825 2772 1636 2509
Q 1447 2247 1447 1747
Q 1447 1247 1636 984
Q 1825 722 2181 722
Q 2541 722 2730 984
Q 2919 1247 2919 1747
Q 2919 2247 2730 2509
Q 2541 2772 2181 2772
z
M 2919 506
Q 2688 197 2409 53
Q 2131 -91 1766 -91
Q 1119 -91 703 423
Q 288 938 288 1747
Q 288 2556 703 3067
Q 1119 3578 1766 3578
Q 2131 3578 2409 3434
Q 2688 3291 2919 2981
L 2919 3500
L 4044 3500
L 4044 -1331
L 2919 -1331
L 2919 506
z
" transform="scale(0.015625)"/>
      <path id="DejaVuSans-Bold-75" d="M 500 1363
L 500 3500
L 1625 3500
L 1625 3150
Q 1625 2866 1622 2436
Q 1619 2006 1619 1863
Q 1619 1441 1641 1255
Q 1663 1069 1716 984
Q 1784 875 1895 815
Q 2006 756 2150 756
Q 2500 756 2700 1025
Q 2900 1294 2900 1772
L 2900 3500
L 4019 3500
L 4019 0
L 2900 0
L 2900 506
Q 2647 200 2364 54
Q 2081 -91 1741 -91
Q 1134 -91 817 281
Q 500 653 500 1363
z
" transform="scale(0.015625)"/>
      <path id="DejaVuSans-Bold-62" d="M 2400 722
Q 2759 722 2948 984
Q 3138 1247 3138 1747
Q 3138 2247 2948 2509
Q 2759 2772 2400 2772
Q 2041 2772 1848 2508
Q 1656 2244 1656 1747
Q 1656 1250 1848 986
Q 2041 722 2400 722
z
M 1656 2988
Q 1888 3294 2169 3439
Q 2450 3584 2816 3584
Q 3463 3584 3878 3070
Q 4294 2556 4294 1747
Q 4294 938 3878 423
Q 3463 -91 2816 -91
Q 2450 -91 2169 54
Q 1888 200 1656 506
L 1656 0
L 538 0
L 538 4863
L 1656 4863
L 1656 2988
z
" transform="scale(0.015625)"/>
      <path id="DejaVuSans-Bold-72" d="M 3138 2547
Q 2991 2616 2845 2648
Q 2700 2681 2553 2681
Q 2122 2681 1889 2404
Q 1656 2128 1656 1613
L 1656 0
L 538 0
L 538 3500
L 1656 3500
L 1656 2925
Q 1872 3269 2151 3426
Q 2431 3584 2822 3584
Q 2878 3584 2943 3579
Q 3009 3575 3134 3559
L 3138 2547
z
" transform="scale(0.015625)"/>
      <path id="DejaVuSans-Bold-66" d="M 2841 4863
L 2841 4128
L 2222 4128
Q 1984 4128 1890 4042
Q 1797 3956 1797 3744
L 1797 3500
L 2753 3500
L 2753 2700
L 1797 2700
L 1797 0
L 678 0
L 678 2700
L 122 2700
L 122 3500
L 678 3500
L 678 3744
Q 678 4316 997 4589
Q 1316 4863 1984 4863
L 2841 4863
z
" transform="scale(0.015625)"/>
      <path id="DejaVuSans-Bold-6b" d="M 538 4863
L 1656 4863
L 1656 2216
L 2944 3500
L 4244 3500
L 2534 1894
L 4378 0
L 3022 0
L 1656 1459
L 1656 0
L 538 0
L 538 4863
z
" transform="scale(0.015625)"/>
      <path id="DejaVuSans-Bold-78" d="M 1422 1791
L 159 3500
L 1344 3500
L 2059 2463
L 2784 3500
L 3969 3500
L 2706 1797
L 4031 0
L 2847 0
L 2059 1106
L 1281 0
L 97 0
L 1422 1791
z
" transform="scale(0.015625)"/>
      <path id="DejaVuSans-Bold-70" d="M 1656 506
L 1656 -1331
L 538 -1331
L 538 3500
L 1656 3500
L 1656 2988
Q 1888 3294 2169 3439
Q 2450 3584 2816 3584
Q 3463 3584 3878 3070
Q 4294 2556 4294 1747
Q 4294 938 3878 423
Q 3463 -91 2816 -91
Q 2450 -91 2169 54
Q 1888 200 1656 506
z
M 2400 2772
Q 2041 2772 1848 2508
Q 1656 2244 1656 1747
Q 1656 1250 1848 986
Q 2041 722 2400 722
Q 2759 722 2948 984
Q 3138 1247 3138 1747
Q 3138 2247 2948 2509
Q 2759 2772 2400 2772
z
" transform="scale(0.015625)"/>
      <path id="DejaVuSans-Bold-6f" d="M 2203 2784
Q 1831 2784 1636 2517
Q 1441 2250 1441 1747
Q 1441 1244 1636 976
Q 1831 709 2203 709
Q 2569 709 2762 976
Q 2956 1244 2956 1747
Q 2956 2250 2762 2517
Q 2569 2784 2203 2784
z
M 2203 3584
Q 3106 3584 3614 3096
Q 4122 2609 4122 1747
Q 4122 884 3614 396
Q 3106 -91 2203 -91
Q 1297 -91 786 396
Q 275 884 275 1747
Q 275 2609 786 3096
Q 1297 3584 2203 3584
z
" transform="scale(0.015625)"/>
      <path id="DejaVuSans-Bold-2c" d="M 653 1209
L 1778 1209
L 1778 256
L 1006 -909
L 341 -909
L 653 256
L 653 1209
z
" transform="scale(0.015625)"/>
      <path id="DejaVuSans-Bold-68" d="M 4056 2131
L 4056 0
L 2931 0
L 2931 347
L 2931 1625
Q 2931 2084 2911 2256
Q 2891 2428 2841 2509
Q 2775 2619 2662 2680
Q 2550 2741 2406 2741
Q 2056 2741 1856 2470
Q 1656 2200 1656 1722
L 1656 0
L 538 0
L 538 4863
L 1656 4863
L 1656 2988
Q 1909 3294 2193 3439
Q 2478 3584 2822 3584
Q 3428 3584 3742 3212
Q 4056 2841 4056 2131
z
" transform="scale(0.015625)"/>
      <path id="DejaVuSans-Bold-67" d="M 2919 594
Q 2688 288 2409 144
Q 2131 0 1766 0
Q 1125 0 706 504
Q 288 1009 288 1791
Q 288 2575 706 3076
Q 1125 3578 1766 3578
Q 2131 3578 2409 3434
Q 2688 3291 2919 2981
L 2919 3500
L 4044 3500
L 4044 353
Q 4044 -491 3511 -936
Q 2978 -1381 1966 -1381
Q 1638 -1381 1331 -1331
Q 1025 -1281 716 -1178
L 716 -306
Q 1009 -475 1290 -558
Q 1572 -641 1856 -641
Q 2406 -641 2662 -400
Q 2919 -159 2919 353
L 2919 594
z
M 2181 2772
Q 1834 2772 1640 2515
Q 1447 2259 1447 1791
Q 1447 1309 1634 1061
Q 1822 813 2181 813
Q 2531 813 2725 1069
Q 2919 1325 2919 1791
Q 2919 2259 2725 2515
Q 2531 2772 2181 2772
z
" transform="scale(0.015625)"/>
     </defs>
     <use xlink:href="#DejaVuSans-Bold-45"/>
     <use xlink:href="#DejaVuSans-Bold-6c" transform="translate(68.310547 0)"/>
     <use xlink:href="#DejaVuSans-Bold-61" transform="translate(102.587891 0)"/>
     <use xlink:href="#DejaVuSans-Bold-73" transform="translate(170.068359 0)"/>
     <use xlink:href="#DejaVuSans-Bold-74" transform="translate(229.589844 0)"/>
     <use xlink:href="#DejaVuSans-Bold-69" transform="translate(277.392578 0)"/>
     <use xlink:href="#DejaVuSans-Bold-63" transform="translate(311.669922 0)"/>
     <use xlink:href="#DejaVuSans-Bold-2d" transform="translate(370.947266 0)"/>
     <use xlink:href="#DejaVuSans-Bold-64" transform="translate(412.451172 0)"/>
     <use xlink:href="#DejaVuSans-Bold-65" transform="translate(484.033203 0)"/>
     <use xlink:href="#DejaVuSans-Bold-6d" transform="translate(551.855469 0)"/>
     <use xlink:href="#DejaVuSans-Bold-61" transform="translate(656.054688 0)"/>
     <use xlink:href="#DejaVuSans-Bold-6e" transform="translate(723.535156 0)"/>
     <use xlink:href="#DejaVuSans-Bold-64" transform="translate(794.726562 0)"/>
     <use xlink:href="#DejaVuSans-Bold-20" transform="translate(866.308594 0)"/>
     <use xlink:href="#DejaVuSans-Bold-65" transform="translate(901.123047 0)"/>
     <use xlink:href="#DejaVuSans-Bold-71" transform="translate(968.945312 0)"/>
     <use xlink:href="#DejaVuSans-Bold-75" transform="translate(1040.527344 0)"/>
     <use xlink:href="#DejaVuSans-Bold-69" transform="translate(1111.71875 0)"/>
     <use xlink:href="#DejaVuSans-Bold-6c" transform="translate(1145.996094 0)"/>
     <use xlink:href="#DejaVuSans-Bold-69" transform="translate(1180.273438 0)"/>
     <use xlink:href="#DejaVuSans-Bold-62" transform="translate(1214.550781 0)"/>
     <use xlink:href="#DejaVuSans-Bold-72" transform="translate(1286.132812 0)"/>
     <use xlink:href="#DejaVuSans-Bold-69" transform="translate(1335.449219 0)"/>
     <use xlink:href="#DejaVuSans-Bold-75" transform="translate(1369.726562 0)"/>
     <use xlink:href="#DejaVuSans-Bold-6d" transform="translate(1440.917969 0)"/>
     <use xlink:href="#DejaVuSans-Bold-20" transform="translate(1545.117188 0)"/>
     <use xlink:href="#DejaVuSans-Bold-69" transform="translate(1579.931641 0)"/>
     <use xlink:href="#DejaVuSans-Bold-73" transform="translate(1614.208984 0)"/>
     <use xlink:href="#DejaVuSans-Bold-20" transform="translate(1673.730469 0)"/>
     <use xlink:href="#DejaVuSans-Bold-61" transform="translate(1708.544922 0)"/>
     <use xlink:href="#DejaVuSans-Bold-20" transform="translate(1776.025391 0)"/>
     <use xlink:href="#DejaVuSans-Bold-66" transform="translate(1810.839844 0)"/>
     <use xlink:href="#DejaVuSans-Bold-65" transform="translate(1854.345703 0)"/>
     <use xlink:href="#DejaVuSans-Bold-65" transform="translate(1922.167969 0)"/>
     <use xlink:href="#DejaVuSans-Bold-64" transform="translate(1989.990234 0)"/>
     <use xlink:href="#DejaVuSans-Bold-62" transform="translate(2061.572266 0)"/>
     <use xlink:href="#DejaVuSans-Bold-61" transform="translate(2133.154297 0)"/>
     <use xlink:href="#DejaVuSans-Bold-63" transform="translate(2200.634766 0)"/>
     <use xlink:href="#DejaVuSans-Bold-6b" transform="translate(2259.912109 0)"/>
     <use xlink:href="#DejaVuSans-Bold-20" transform="translate(2326.416016 0)"/>
     <use xlink:href="#DejaVuSans-Bold-66" transform="translate(2361.230469 0)"/>
     <use xlink:href="#DejaVuSans-Bold-69" transform="translate(2404.736328 0)"/>
     <use xlink:href="#DejaVuSans-Bold-78" transform="translate(2439.013672 0)"/>
     <use xlink:href="#DejaVuSans-Bold-65" transform="translate(2503.515625 0)"/>
     <use xlink:href="#DejaVuSans-Bold-64" transform="translate(2571.337891 0)"/>
     <use xlink:href="#DejaVuSans-Bold-20" transform="translate(2642.919922 0)"/>
     <use xlink:href="#DejaVuSans-Bold-70" transform="translate(2677.734375 0)"/>
     <use xlink:href="#DejaVuSans-Bold-6f" transform="translate(2749.316406 0)"/>
     <use xlink:href="#DejaVuSans-Bold-69" transform="translate(2818.017578 0)"/>
     <use xlink:href="#DejaVuSans-Bold-6e" transform="translate(2852.294922 0)"/>
     <use xlink:href="#DejaVuSans-Bold-74" transform="translate(2923.486328 0)"/>
     <use xlink:href="#DejaVuSans-Bold-2c" transform="translate(2971.289062 0)"/>
     <use xlink:href="#DejaVuSans-Bold-20" transform="translate(3009.277344 0)"/>
     <use xlink:href="#DejaVuSans-Bold-6e" transform="translate(3044.091797 0)"/>
     <use xlink:href="#DejaVuSans-Bold-6f" transform="translate(3115.283203 0)"/>
     <use xlink:href="#DejaVuSans-Bold-74" transform="translate(3183.984375 0)"/>
     <use xlink:href="#DejaVuSans-Bold-20" transform="translate(3231.787109 0)"/>
     <use xlink:href="#DejaVuSans-Bold-61" transform="translate(3266.601562 0)"/>
     <use xlink:href="#DejaVuSans-Bold-20" transform="translate(3334.082031 0)"/>
     <use xlink:href="#DejaVuSans-Bold-73" transform="translate(3368.896484 0)"/>
     <use xlink:href="#DejaVuSans-Bold-65" transform="translate(3428.417969 0)"/>
     <use xlink:href="#DejaVuSans-Bold-71" transform="translate(3496.240234 0)"/>
     <use xlink:href="#DejaVuSans-Bold-75" transform="translate(3567.822266 0)"/>
     <use xlink:href="#DejaVuSans-Bold-65" transform="translate(3639.013672 0)"/>
     <use xlink:href="#DejaVuSans-Bold-6e" transform="translate(3706.835938 0)"/>
     <use xlink:href="#DejaVuSans-Bold-74" transform="translate(3778.027344 0)"/>
     <use xlink:href="#DejaVuSans-Bold-69" transform="translate(3825.830078 0)"/>
     <use xlink:href="#DejaVuSans-Bold-61" transform="translate(3860.107422 0)"/>
     <use xlink:href="#DejaVuSans-Bold-6c" transform="translate(3927.587891 0)"/>
     <use xlink:href="#DejaVuSans-Bold-20" transform="translate(3961.865234 0)"/>
     <use xlink:href="#DejaVuSans-Bold-61" transform="translate(3996.679688 0)"/>
     <use xlink:href="#DejaVuSans-Bold-66" transform="translate(4064.160156 0)"/>
     <use xlink:href="#DejaVuSans-Bold-74" transform="translate(4107.666016 0)"/>
     <use xlink:href="#DejaVuSans-Bold-65" transform="translate(4155.46875 0)"/>
     <use xlink:href="#DejaVuSans-Bold-72" transform="translate(4223.291016 0)"/>
     <use xlink:href="#DejaVuSans-Bold-74" transform="translate(4272.607422 0)"/>
     <use xlink:href="#DejaVuSans-Bold-68" transform="translate(4320.410156 0)"/>
     <use xlink:href="#DejaVuSans-Bold-6f" transform="translate(4391.601562 0)"/>
     <use xlink:href="#DejaVuSans-Bold-75" transform="translate(4460.302734 0)"/>
     <use xlink:href="#DejaVuSans-Bold-67" transform="translate(4531.494141 0)"/>
     <use xlink:href="#DejaVuSans-Bold-68" transform="translate(4603.076172 0)"/>
     <use xlink:href="#DejaVuSans-Bold-74" transform="translate(4674.267578 0)"/>
    </g>
   </g>
   <g id="text_10">
    <!-- Adding the candidate link changes the network cost relation; demand and route flows settle together where generalized cost equals willingness to pay. -->
    <g style="fill: #5e728f" transform="translate(7.2 305.755351) scale(0.094 -0.094)">
     <defs>
      <path id="DejaVuSans-68" d="M 3513 2113
L 3513 0
L 2938 0
L 2938 2094
Q 2938 2591 2744 2837
Q 2550 3084 2163 3084
Q 1697 3084 1428 2787
Q 1159 2491 1159 1978
L 1159 0
L 581 0
L 581 4863
L 1159 4863
L 1159 2956
Q 1366 3272 1645 3428
Q 1925 3584 2291 3584
Q 2894 3584 3203 3211
Q 3513 2838 3513 2113
z
" transform="scale(0.015625)"/>
      <path id="DejaVuSans-3b" d="M 750 3309
L 1409 3309
L 1409 2516
L 750 2516
L 750 3309
z
M 750 794
L 1409 794
L 1409 256
L 897 -744
L 494 -744
L 750 256
L 750 794
z
" transform="scale(0.015625)"/>
      <path id="DejaVuSans-7a" d="M 353 3500
L 3084 3500
L 3084 2975
L 922 459
L 3084 459
L 3084 0
L 275 0
L 275 525
L 2438 3041
L 353 3041
L 353 3500
z
" transform="scale(0.015625)"/>
      <path id="DejaVuSans-79" d="M 2059 -325
Q 1816 -950 1584 -1140
Q 1353 -1331 966 -1331
L 506 -1331
L 506 -850
L 844 -850
Q 1081 -850 1212 -737
Q 1344 -625 1503 -206
L 1606 56
L 191 3500
L 800 3500
L 1894 763
L 2988 3500
L 3597 3500
L 2059 -325
z
" transform="scale(0.015625)"/>
      <path id="DejaVuSans-2e" d="M 684 794
L 1344 794
L 1344 0
L 684 0
L 684 794
z
" transform="scale(0.015625)"/>
     </defs>
     <use xlink:href="#DejaVuSans-41"/>
     <use xlink:href="#DejaVuSans-64" transform="translate(66.658203 0)"/>
     <use xlink:href="#DejaVuSans-64" transform="translate(130.134766 0)"/>
     <use xlink:href="#DejaVuSans-69" transform="translate(193.611328 0)"/>
     <use xlink:href="#DejaVuSans-6e" transform="translate(221.394531 0)"/>
     <use xlink:href="#DejaVuSans-67" transform="translate(284.773438 0)"/>
     <use xlink:href="#DejaVuSans-20" transform="translate(348.25 0)"/>
     <use xlink:href="#DejaVuSans-74" transform="translate(380.037109 0)"/>
     <use xlink:href="#DejaVuSans-68" transform="translate(419.246094 0)"/>
     <use xlink:href="#DejaVuSans-65" transform="translate(482.625 0)"/>
     <use xlink:href="#DejaVuSans-20" transform="translate(544.148438 0)"/>
     <use xlink:href="#DejaVuSans-63" transform="translate(575.935547 0)"/>
     <use xlink:href="#DejaVuSans-61" transform="translate(630.916016 0)"/>
     <use xlink:href="#DejaVuSans-6e" transform="translate(692.195312 0)"/>
     <use xlink:href="#DejaVuSans-64" transform="translate(755.574219 0)"/>
     <use xlink:href="#DejaVuSans-69" transform="translate(819.050781 0)"/>
     <use xlink:href="#DejaVuSans-64" transform="translate(846.833984 0)"/>
     <use xlink:href="#DejaVuSans-61" transform="translate(910.310547 0)"/>
     <use xlink:href="#DejaVuSans-74" transform="translate(971.589844 0)"/>
     <use xlink:href="#DejaVuSans-65" transform="translate(1010.798828 0)"/>
     <use xlink:href="#DejaVuSans-20" transform="translate(1072.322266 0)"/>
     <use xlink:href="#DejaVuSans-6c" transform="translate(1104.109375 0)"/>
     <use xlink:href="#DejaVuSans-69" transform="translate(1131.892578 0)"/>
     <use xlink:href="#DejaVuSans-6e" transform="translate(1159.675781 0)"/>
     <use xlink:href="#DejaVuSans-6b" transform="translate(1223.054688 0)"/>
     <use xlink:href="#DejaVuSans-20" transform="translate(1280.964844 0)"/>
     <use xlink:href="#DejaVuSans-63" transform="translate(1312.751953 0)"/>
     <use xlink:href="#DejaVuSans-68" transform="translate(1367.732422 0)"/>
     <use xlink:href="#DejaVuSans-61" transform="translate(1431.111328 0)"/>
     <use xlink:href="#DejaVuSans-6e" transform="translate(1492.390625 0)"/>
     <use xlink:href="#DejaVuSans-67" transform="translate(1555.769531 0)"/>
     <use xlink:href="#DejaVuSans-65" transform="translate(1619.246094 0)"/>
     <use xlink:href="#DejaVuSans-73" transform="translate(1680.769531 0)"/>
     <use xlink:href="#DejaVuSans-20" transform="translate(1732.869141 0)"/>
     <use xlink:href="#DejaVuSans-74" transform="translate(1764.65625 0)"/>
     <use xlink:href="#DejaVuSans-68" transform="translate(1803.865234 0)"/>
     <use xlink:href="#DejaVuSans-65" transform="translate(1867.244141 0)"/>
     <use xlink:href="#DejaVuSans-20" transform="translate(1928.767578 0)"/>
     <use xlink:href="#DejaVuSans-6e" transform="translate(1960.554688 0)"/>
     <use xlink:href="#DejaVuSans-65" transform="translate(2023.933594 0)"/>
     <use xlink:href="#DejaVuSans-74" transform="translate(2085.457031 0)"/>
     <use xlink:href="#DejaVuSans-77" transform="translate(2124.666016 0)"/>
     <use xlink:href="#DejaVuSans-6f" transform="translate(2206.453125 0)"/>
     <use xlink:href="#DejaVuSans-72" transform="translate(2267.634766 0)"/>
     <use xlink:href="#DejaVuSans-6b" transform="translate(2308.748047 0)"/>
     <use xlink:href="#DejaVuSans-20" transform="translate(2366.658203 0)"/>
     <use xlink:href="#DejaVuSans-63" transform="translate(2398.445312 0)"/>
     <use xlink:href="#DejaVuSans-6f" transform="translate(2453.425781 0)"/>
     <use xlink:href="#DejaVuSans-73" transform="translate(2514.607422 0)"/>
     <use xlink:href="#DejaVuSans-74" transform="translate(2566.707031 0)"/>
     <use xlink:href="#DejaVuSans-20" transform="translate(2605.916016 0)"/>
     <use xlink:href="#DejaVuSans-72" transform="translate(2637.703125 0)"/>
     <use xlink:href="#DejaVuSans-65" transform="translate(2676.566406 0)"/>
     <use xlink:href="#DejaVuSans-6c" transform="translate(2738.089844 0)"/>
     <use xlink:href="#DejaVuSans-61" transform="translate(2765.873047 0)"/>
     <use xlink:href="#DejaVuSans-74" transform="translate(2827.152344 0)"/>
     <use xlink:href="#DejaVuSans-69" transform="translate(2866.361328 0)"/>
     <use xlink:href="#DejaVuSans-6f" transform="translate(2894.144531 0)"/>
     <use xlink:href="#DejaVuSans-6e" transform="translate(2955.326172 0)"/>
     <use xlink:href="#DejaVuSans-3b" transform="translate(3018.705078 0)"/>
     <use xlink:href="#DejaVuSans-20" transform="translate(3052.396484 0)"/>
     <use xlink:href="#DejaVuSans-64" transform="translate(3084.183594 0)"/>
     <use xlink:href="#DejaVuSans-65" transform="translate(3147.660156 0)"/>
     <use xlink:href="#DejaVuSans-6d" transform="translate(3209.183594 0)"/>
     <use xlink:href="#DejaVuSans-61" transform="translate(3306.595703 0)"/>
     <use xlink:href="#DejaVuSans-6e" transform="translate(3367.875 0)"/>
     <use xlink:href="#DejaVuSans-64" transform="translate(3431.253906 0)"/>
     <use xlink:href="#DejaVuSans-20" transform="translate(3494.730469 0)"/>
     <use xlink:href="#DejaVuSans-61" transform="translate(3526.517578 0)"/>
     <use xlink:href="#DejaVuSans-6e" transform="translate(3587.796875 0)"/>
     <use xlink:href="#DejaVuSans-64" transform="translate(3651.175781 0)"/>
     <use xlink:href="#DejaVuSans-20" transform="translate(3714.652344 0)"/>
     <use xlink:href="#DejaVuSans-72" transform="translate(3746.439453 0)"/>
     <use xlink:href="#DejaVuSans-6f" transform="translate(3785.302734 0)"/>
     <use xlink:href="#DejaVuSans-75" transform="translate(3846.484375 0)"/>
     <use xlink:href="#DejaVuSans-74" transform="translate(3909.863281 0)"/>
     <use xlink:href="#DejaVuSans-65" transform="translate(3949.072266 0)"/>
     <use xlink:href="#DejaVuSans-20" transform="translate(4010.595703 0)"/>
     <use xlink:href="#DejaVuSans-66" transform="translate(4042.382812 0)"/>
     <use xlink:href="#DejaVuSans-6c" transform="translate(4077.587891 0)"/>
     <use xlink:href="#DejaVuSans-6f" transform="translate(4105.371094 0)"/>
     <use xlink:href="#DejaVuSans-77" transform="translate(4166.552734 0)"/>
     <use xlink:href="#DejaVuSans-73" transform="translate(4248.339844 0)"/>
     <use xlink:href="#DejaVuSans-20" transform="translate(4300.439453 0)"/>
     <use xlink:href="#DejaVuSans-73" transform="translate(4332.226562 0)"/>
     <use xlink:href="#DejaVuSans-65" transform="translate(4384.326172 0)"/>
     <use xlink:href="#DejaVuSans-74" transform="translate(4445.849609 0)"/>
     <use xlink:href="#DejaVuSans-74" transform="translate(4485.058594 0)"/>
     <use xlink:href="#DejaVuSans-6c" transform="translate(4524.267578 0)"/>
     <use xlink:href="#DejaVuSans-65" transform="translate(4552.050781 0)"/>
     <use xlink:href="#DejaVuSans-20" transform="translate(4613.574219 0)"/>
     <use xlink:href="#DejaVuSans-74" transform="translate(4645.361328 0)"/>
     <use xlink:href="#DejaVuSans-6f" transform="translate(4684.570312 0)"/>
     <use xlink:href="#DejaVuSans-67" transform="translate(4745.751953 0)"/>
     <use xlink:href="#DejaVuSans-65" transform="translate(4809.228516 0)"/>
     <use xlink:href="#DejaVuSans-74" transform="translate(4870.751953 0)"/>
     <use xlink:href="#DejaVuSans-68" transform="translate(4909.960938 0)"/>
     <use xlink:href="#DejaVuSans-65" transform="translate(4973.339844 0)"/>
     <use xlink:href="#DejaVuSans-72" transform="translate(5034.863281 0)"/>
     <use xlink:href="#DejaVuSans-20" transform="translate(5075.976562 0)"/>
     <use xlink:href="#DejaVuSans-77" transform="translate(5107.763672 0)"/>
     <use xlink:href="#DejaVuSans-68" transform="translate(5189.550781 0)"/>
     <use xlink:href="#DejaVuSans-65" transform="translate(5252.929688 0)"/>
     <use xlink:href="#DejaVuSans-72" transform="translate(5314.453125 0)"/>
     <use xlink:href="#DejaVuSans-65" transform="translate(5353.316406 0)"/>
     <use xlink:href="#DejaVuSans-20" transform="translate(5414.839844 0)"/>
     <use xlink:href="#DejaVuSans-67" transform="translate(5446.626953 0)"/>
     <use xlink:href="#DejaVuSans-65" transform="translate(5510.103516 0)"/>
     <use xlink:href="#DejaVuSans-6e" transform="translate(5571.626953 0)"/>
     <use xlink:href="#DejaVuSans-65" transform="translate(5635.005859 0)"/>
     <use xlink:href="#DejaVuSans-72" transform="translate(5696.529297 0)"/>
     <use xlink:href="#DejaVuSans-61" transform="translate(5737.642578 0)"/>
     <use xlink:href="#DejaVuSans-6c" transform="translate(5798.921875 0)"/>
     <use xlink:href="#DejaVuSans-69" transform="translate(5826.705078 0)"/>
     <use xlink:href="#DejaVuSans-7a" transform="translate(5854.488281 0)"/>
     <use xlink:href="#DejaVuSans-65" transform="translate(5906.978516 0)"/>
     <use xlink:href="#DejaVuSans-64" transform="translate(5968.501953 0)"/>
     <use xlink:href="#DejaVuSans-20" transform="translate(6031.978516 0)"/>
     <use xlink:href="#DejaVuSans-63" transform="translate(6063.765625 0)"/>
     <use xlink:href="#DejaVuSans-6f" transform="translate(6118.746094 0)"/>
     <use xlink:href="#DejaVuSans-73" transform="translate(6179.927734 0)"/>
     <use xlink:href="#DejaVuSans-74" transform="translate(6232.027344 0)"/>
     <use xlink:href="#DejaVuSans-20" transform="translate(6271.236328 0)"/>
     <use xlink:href="#DejaVuSans-65" transform="translate(6303.023438 0)"/>
     <use xlink:href="#DejaVuSans-71" transform="translate(6364.546875 0)"/>
     <use xlink:href="#DejaVuSans-75" transform="translate(6428.023438 0)"/>
     <use xlink:href="#DejaVuSans-61" transform="translate(6491.402344 0)"/>
     <use xlink:href="#DejaVuSans-6c" transform="translate(6552.681641 0)"/>
     <use xlink:href="#DejaVuSans-73" transform="translate(6580.464844 0)"/>
     <use xlink:href="#DejaVuSans-20" transform="translate(6632.564453 0)"/>
     <use xlink:href="#DejaVuSans-77" transform="translate(6664.351562 0)"/>
     <use xlink:href="#DejaVuSans-69" transform="translate(6746.138672 0)"/>
     <use xlink:href="#DejaVuSans-6c" transform="translate(6773.921875 0)"/>
     <use xlink:href="#DejaVuSans-6c" transform="translate(6801.705078 0)"/>
     <use xlink:href="#DejaVuSans-69" transform="translate(6829.488281 0)"/>
     <use xlink:href="#DejaVuSans-6e" transform="translate(6857.271484 0)"/>
     <use xlink:href="#DejaVuSans-67" transform="translate(6920.650391 0)"/>
     <use xlink:href="#DejaVuSans-6e" transform="translate(6984.126953 0)"/>
     <use xlink:href="#DejaVuSans-65" transform="translate(7047.505859 0)"/>
     <use xlink:href="#DejaVuSans-73" transform="translate(7109.029297 0)"/>
     <use xlink:href="#DejaVuSans-73" transform="translate(7161.128906 0)"/>
     <use xlink:href="#DejaVuSans-20" transform="translate(7213.228516 0)"/>
     <use xlink:href="#DejaVuSans-74" transform="translate(7245.015625 0)"/>
     <use xlink:href="#DejaVuSans-6f" transform="translate(7284.224609 0)"/>
     <use xlink:href="#DejaVuSans-20" transform="translate(7345.40625 0)"/>
     <use xlink:href="#DejaVuSans-70" transform="translate(7377.193359 0)"/>
     <use xlink:href="#DejaVuSans-61" transform="translate(7440.669922 0)"/>
     <use xlink:href="#DejaVuSans-79" transform="translate(7501.949219 0)"/>
     <use xlink:href="#DejaVuSans-2e" transform="translate(7546.878906 0)"/>
    </g>
   </g>
  </g>
 </g>
 <defs>
  <clipPath id="pb725596238">
   <rect x="60.093906" y="7.2" width="606.6" height="324"/>
  </clipPath>
 </defs>
</svg>
